<svg xmlns="http://www.w3.org/2000/svg" xmlns:xlink="http://www.w3.org/1999/xlink" width="228" height="168" viewBox="0 0 228 168"><defs><clipPath id="a"><rect width="228" height="168" transform="translate(0 -0.427)" fill="#fff" stroke="#707070" stroke-width="1"/></clipPath></defs><g transform="translate(0 0.427)" clip-path="url(#a)"><g transform="translate(4.692 -0.025)"><path d="M210.254,88.3l-4.765-5L188.766,38.647A19.608,19.608,0,0,0,170.5,26.061H51.057A19.541,19.541,0,0,0,32.792,38.647L16.3,82.747,9.436,89.04A26.486,26.486,0,0,0,0,109.262v65.062a19.438,19.438,0,0,0,19.526,19.25H31.858a19.438,19.438,0,0,0,19.526-19.25v-9.44H167.231v9.44a19.438,19.438,0,0,0,19.526,19.25H199.09a19.438,19.438,0,0,0,19.526-19.25V107.55A26.714,26.714,0,0,0,210.254,88.3ZM41.574,41.794a10.1,10.1,0,0,1,9.483-6.478H170.548a10.167,10.167,0,0,1,9.483,6.478l14.574,38.871H183.721a32.086,32.086,0,0,0-63.389,0H27ZM174.192,80.665H129.768a22.734,22.734,0,0,1,44.424,0Zm-132.15,93.66a10.111,10.111,0,0,1-10.183,10H19.526a10.111,10.111,0,0,1-10.183-10V162.2a19.108,19.108,0,0,0,10.183,2.684H42.041Zm167.231,0a10.111,10.111,0,0,1-10.183,10H186.757a10.141,10.141,0,0,1-10.183-10v-9.44H199.09a19.108,19.108,0,0,0,10.183-2.684v12.124ZM199.09,155.629H19.526a10.033,10.033,0,0,1-10.183-9.9V109.262a17.307,17.307,0,0,1,6.213-13.235l.187-.185L22.1,89.92H199l4.484,4.766c.047.093.187.139.234.231a17.363,17.363,0,0,1,5.512,12.633v38.176h.047A10.063,10.063,0,0,1,199.09,155.629Z" transform="translate(0 -26.061)" fill="#fff"/><g transform="translate(21.955 82.369)"><path d="M62.816,113.586H27.782a4.663,4.663,0,0,0-4.671,4.627v24.063a4.663,4.663,0,0,0,4.671,4.627H62.816a4.663,4.663,0,0,0,4.671-4.627V118.213A4.663,4.663,0,0,0,62.816,113.586Zm-4.671,24.063H32.453V122.841H58.145Z" transform="translate(-23.11 -113.586)" fill="#fff"/></g><g transform="translate(152.283 82.369)"><path d="M200,113.586H164.97a4.663,4.663,0,0,0-4.671,4.627v24.063a4.663,4.663,0,0,0,4.671,4.627H200a4.663,4.663,0,0,0,4.671-4.627V118.213A4.663,4.663,0,0,0,200,113.586Zm-4.671,24.063H169.641V122.841h25.692Z" transform="translate(-160.298 -113.586)" fill="#fff"/></g><g transform="translate(82.074 101.804)"><path d="M136.19,134.238H91.065a4.628,4.628,0,1,0,0,9.255H136.19a4.628,4.628,0,1,0,0-9.255Z" transform="translate(-86.394 -134.238)" fill="#fff"/></g><g transform="translate(82.074 87.459)"><path d="M136.19,118.994H91.065a4.628,4.628,0,1,0,0,9.255H136.19a4.628,4.628,0,1,0,0-9.255Z" transform="translate(-86.394 -118.994)" fill="#fff"/></g></g></g></svg>