<svg xmlns="http://www.w3.org/2000/svg" xmlns:xlink="http://www.w3.org/1999/xlink" width="240" height="178" viewBox="0 0 240 178"><defs><clipPath id="a"><rect width="240" height="178" transform="translate(0 -0.427)" fill="#fff" stroke="#707070" stroke-width="1"/></clipPath></defs><g transform="translate(0 0.427)" clip-path="url(#a)"><g transform="translate(40.039)"><path d="M165.485,41.72H99.43V3.477A3.477,3.477,0,0,0,95.953,0H12.516A3.477,3.477,0,0,0,9.039,3.477V174.523A3.477,3.477,0,0,0,12.516,178H165.485a3.477,3.477,0,0,0,3.477-3.477V45.2A3.477,3.477,0,0,0,165.485,41.72ZM99.43,48.673h62.578v87.608H99.43ZM43.8,171.047V143.234H64.664v27.813Zm24.336-34.766H40.328a3.477,3.477,0,0,0-3.477,3.477v31.289H15.992V6.953H92.477V171.047H71.617V139.758A3.477,3.477,0,0,0,68.141,136.281ZM99.43,171.047V143.234h62.578v27.813Z" transform="translate(-9.039)" fill="#fff"/><path d="M50.758,27.813H57.71a3.477,3.477,0,0,0,3.477-3.477V17.383a3.477,3.477,0,0,0-3.477-3.477H50.758a3.477,3.477,0,0,0-3.477,3.477v6.953A3.477,3.477,0,0,0,50.758,27.813Z" transform="translate(-9.039)" fill="#fff"/><path d="M50.758,52.149H57.71a3.477,3.477,0,0,0,3.477-3.477V41.719a3.477,3.477,0,0,0-3.477-3.477H50.758a3.476,3.476,0,0,0-3.477,3.477v6.953A3.477,3.477,0,0,0,50.758,52.149Z" transform="translate(-9.039)" fill="#fff"/><path d="M50.758,76.485H57.71a3.477,3.477,0,0,0,3.477-3.477V66.055a3.477,3.477,0,0,0-3.477-3.477H50.758a3.477,3.477,0,0,0-3.477,3.477v6.953A3.477,3.477,0,0,0,50.758,76.485Z" transform="translate(-9.039)" fill="#fff"/><path d="M50.758,100.821H57.71a3.477,3.477,0,0,0,3.477-3.477V90.391a3.477,3.477,0,0,0-3.477-3.477H50.758a3.477,3.477,0,0,0-3.477,3.477v6.953A3.477,3.477,0,0,0,50.758,100.821Z" transform="translate(-9.039)" fill="#fff"/><path d="M50.758,125.156H57.71a3.477,3.477,0,0,0,3.477-3.477v-6.953a3.477,3.477,0,0,0-3.477-3.477H50.758a3.477,3.477,0,0,0-3.477,3.477v6.953A3.477,3.477,0,0,0,50.758,125.156Z" transform="translate(-9.039)" fill="#fff"/><path d="M26.422,27.813h6.952a3.477,3.477,0,0,0,3.477-3.477V17.383a3.477,3.477,0,0,0-3.477-3.477H26.422a3.477,3.477,0,0,0-3.477,3.477v6.953A3.477,3.477,0,0,0,26.422,27.813Z" transform="translate(-9.039)" fill="#fff"/><path d="M26.422,52.149h6.952a3.477,3.477,0,0,0,3.477-3.477V41.719a3.477,3.477,0,0,0-3.477-3.477H26.422a3.476,3.476,0,0,0-3.477,3.477v6.953A3.477,3.477,0,0,0,26.422,52.149Z" transform="translate(-9.039)" fill="#fff"/><path d="M26.422,76.485h6.952a3.477,3.477,0,0,0,3.477-3.477V66.055a3.477,3.477,0,0,0-3.477-3.477H26.422a3.477,3.477,0,0,0-3.477,3.477v6.953A3.477,3.477,0,0,0,26.422,76.485Z" transform="translate(-9.039)" fill="#fff"/><path d="M26.422,100.821h6.952a3.477,3.477,0,0,0,3.477-3.477V90.391a3.477,3.477,0,0,0-3.477-3.477H26.422a3.477,3.477,0,0,0-3.477,3.477v6.953A3.476,3.476,0,0,0,26.422,100.821Z" transform="translate(-9.039)" fill="#fff"/><path d="M26.422,125.156h6.952a3.477,3.477,0,0,0,3.477-3.477v-6.953a3.477,3.477,0,0,0-3.477-3.477H26.422a3.476,3.476,0,0,0-3.477,3.477v6.953A3.476,3.476,0,0,0,26.422,125.156Z" transform="translate(-9.039)" fill="#fff"/><path d="M82.046,13.907H75.094a3.477,3.477,0,0,0-3.477,3.477v6.953a3.477,3.477,0,0,0,3.477,3.477h6.952a3.477,3.477,0,0,0,3.477-3.477V17.383A3.477,3.477,0,0,0,82.046,13.907Z" transform="translate(-9.039)" fill="#fff"/><path d="M82.046,38.242H75.094a3.477,3.477,0,0,0-3.477,3.477v6.953a3.477,3.477,0,0,0,3.477,3.477h6.952a3.477,3.477,0,0,0,3.477-3.477V41.719A3.477,3.477,0,0,0,82.046,38.242Z" transform="translate(-9.039)" fill="#fff"/><path d="M82.046,62.578H75.094a3.477,3.477,0,0,0-3.477,3.477v6.953a3.477,3.477,0,0,0,3.477,3.477h6.952a3.477,3.477,0,0,0,3.477-3.477V66.055A3.477,3.477,0,0,0,82.046,62.578Z" transform="translate(-9.039)" fill="#fff"/><path d="M82.046,86.914H75.094a3.477,3.477,0,0,0-3.477,3.477v6.953a3.477,3.477,0,0,0,3.477,3.477h6.952a3.477,3.477,0,0,0,3.477-3.477V90.391A3.477,3.477,0,0,0,82.046,86.914Z" transform="translate(-9.039)" fill="#fff"/><path d="M82.046,111.25H75.094a3.477,3.477,0,0,0-3.477,3.477v6.953a3.477,3.477,0,0,0,3.477,3.477h6.952a3.477,3.477,0,0,0,3.477-3.477v-6.953A3.477,3.477,0,0,0,82.046,111.25Z" transform="translate(-9.039)" fill="#fff"/><path d="M146.363,62.578H139.41a3.476,3.476,0,0,0-3.477,3.477v6.953a3.476,3.476,0,0,0,3.477,3.477h6.952a3.477,3.477,0,0,0,3.477-3.477V66.055A3.477,3.477,0,0,0,146.363,62.578Z" transform="translate(-9.039)" fill="#fff"/><path d="M146.363,86.914H139.41a3.476,3.476,0,0,0-3.477,3.477v6.953a3.476,3.476,0,0,0,3.477,3.477h6.952a3.476,3.476,0,0,0,3.477-3.477V90.391A3.477,3.477,0,0,0,146.363,86.914Z" transform="translate(-9.039)" fill="#fff"/><path d="M146.363,111.25H139.41a3.476,3.476,0,0,0-3.477,3.477v6.953a3.476,3.476,0,0,0,3.477,3.477h6.952a3.476,3.476,0,0,0,3.477-3.477v-6.953A3.477,3.477,0,0,0,146.363,111.25Z" transform="translate(-9.039)" fill="#fff"/><path d="M122.027,62.578h-6.952a3.477,3.477,0,0,0-3.477,3.477v6.953a3.477,3.477,0,0,0,3.477,3.477h6.952a3.477,3.477,0,0,0,3.477-3.477V66.055A3.477,3.477,0,0,0,122.027,62.578Z" transform="translate(-9.039)" fill="#fff"/><path d="M122.027,86.914h-6.952a3.477,3.477,0,0,0-3.477,3.477v6.953a3.476,3.476,0,0,0,3.477,3.477h6.952a3.476,3.476,0,0,0,3.477-3.477V90.391A3.477,3.477,0,0,0,122.027,86.914Z" transform="translate(-9.039)" fill="#fff"/><path d="M122.027,111.25h-6.952a3.476,3.476,0,0,0-3.477,3.477v6.953a3.476,3.476,0,0,0,3.477,3.477h6.952a3.476,3.476,0,0,0,3.477-3.477v-6.953A3.477,3.477,0,0,0,122.027,111.25Z" transform="translate(-9.039)" fill="#fff"/></g></g></svg>