<svg xmlns="http://www.w3.org/2000/svg" xmlns:xlink="http://www.w3.org/1999/xlink" width="240" height="178" viewBox="0 0 240 178"><defs><clipPath id="a"><rect width="240" height="178" transform="translate(0 -0.427)" fill="#fff" stroke="#707070" stroke-width="1"/></clipPath></defs><g transform="translate(0 0.427)" clip-path="url(#a)"><g transform="translate(31 0)"><path d="M178,2.871H5.742A2.872,2.872,0,0,0,2.871,5.742v97.613a2.872,2.872,0,0,0,2.871,2.871H56.07a45.936,45.936,0,1,0,71.6,0H178a2.872,2.872,0,0,0,2.871-2.871V5.742A2.872,2.872,0,0,0,178,2.871ZM91.871,175.129a40.194,40.194,0,1,1,40.194-40.194A40.238,40.238,0,0,1,91.871,175.129Zm83.258-74.645H122.151a45.662,45.662,0,0,0-60.56,0H8.613V8.613H175.129Z" transform="translate(-2.871 -2.871)" fill="#fff"/><path d="M68.9,14.355h5.742V77.516H68.9Z" transform="translate(-2.871 -2.871)" fill="#fff"/><path d="M40.194,14.355h5.742V77.516H40.194Z" transform="translate(-2.871 -2.871)" fill="#fff"/><path d="M11.484,14.355h5.742V77.516H11.484Z" transform="translate(-2.871 -2.871)" fill="#fff"/><path d="M166.516,14.355h5.742V77.516h-5.742Z" transform="translate(-2.871 -2.871)" fill="#fff"/><path d="M80.387,14.355h5.742V77.516H80.387Z" transform="translate(-2.871 -2.871)" fill="#fff"/><path d="M109.1,14.355h5.742V77.516H109.1Z" transform="translate(-2.871 -2.871)" fill="#fff"/><path d="M137.806,14.355h5.742V77.516h-5.742Z" transform="translate(-2.871 -2.871)" fill="#fff"/><path d="M51.677,14.355H63.161V77.516H51.677Z" transform="translate(-2.871 -2.871)" fill="#fff"/><path d="M22.968,14.355H34.452V94.742H22.968Z" transform="translate(-2.871 -2.871)" fill="#fff"/><path d="M149.29,14.355h11.484V94.742H149.29Z" transform="translate(-2.871 -2.871)" fill="#fff"/><path d="M91.871,14.355h11.484V77.516H91.871Z" transform="translate(-2.871 -2.871)" fill="#fff"/><path d="M120.581,14.355h11.484V77.516H120.581Z" transform="translate(-2.871 -2.871)" fill="#fff"/><path d="M91.871,166.516v5.742a37.366,37.366,0,0,0,37.323-37.323h-5.742A31.618,31.618,0,0,1,91.871,166.516Z" transform="translate(-2.871 -2.871)" fill="#fff"/><path d="M91.871,97.613a37.366,37.366,0,0,0-37.323,37.323H60.29a31.618,31.618,0,0,1,31.581-31.581Z" transform="translate(-2.871 -2.871)" fill="#fff"/><path d="M106.5,110.753,88.311,149.721,76.85,135.969l-4.41,3.675L86.8,156.87A2.868,2.868,0,0,0,89,157.9a3.286,3.286,0,0,0,.37-.023,2.873,2.873,0,0,0,2.231-1.634l20.1-43.065Z" transform="translate(-2.871 -2.871)" fill="#fff"/></g></g></svg>